<?xml version="1.0" encoding="iso-8859-1"?>
<!-- Uploaded to: SVG Repo, www.svgrepo.com, Generator: SVG Repo Mixer Tools -->
<svg height="800px" width="800px" version="1.1" id="Layer_1" xmlns="http://www.w3.org/2000/svg" xmlns:xlink="http://www.w3.org/1999/xlink" 
	 viewBox="0 0 512 512" xml:space="preserve">
<path style="fill:#FFE477;" d="M129.995,220.796c1.675,0.287,3.436,0.227,5.185-0.236c6.519-1.727,10.404-8.412,8.675-14.931
	L106.547,64.863c-0.892-3.367-3.179-6.192-6.286-7.765L40.985,27.084c-6.019-3.048-13.364-0.639-16.411,5.378
	c-3.046,6.017-0.638,13.364,5.378,16.41l54.391,27.54l35.905,135.474C121.512,216.654,125.431,220.014,129.995,220.796z"/>
<path style="fill:#FFD422;" d="M120.299,116.755l23.554,88.875c1.728,6.519-2.156,13.204-8.674,14.931
	c-1.749,0.463-3.51,0.523-5.185,0.236c-4.564-0.783-8.483-4.142-9.746-8.911L98.137,128.46
	C98.138,128.461,103.506,119.085,120.299,116.755z"/>
<path style="fill:#D1E7F8;" d="M214.069,207.428l1.354-30.11l0,0c1.028-22.864-17.684-23.11-17.684-23.11h-169
	c0,0-18.711,0.245-17.684,23.11l0,0l12.767,283.944c0.003,0.083,0.933,23.293,22.252,23.293h134.33
	c21.319,0,22.249-23.21,22.252-23.293l9.647-214.549"/>
<path style="fill:#B9D8F4;" d="M55.356,461.261L42.59,177.318c-1.028-22.864,17.684-23.11,17.684-23.11H28.739
	c0,0-18.711,0.245-17.684,23.11l12.767,283.944c0.003,0.083,0.933,23.293,22.252,23.293h31.534
	C56.289,484.554,55.36,461.344,55.356,461.261z"/>
<path style="fill:#FFE477;" d="M49.321,445.341c0,0,0.605,14.066,12.255,14.066h105.76c11.649,0,12.255-14.066,12.255-14.066
	l10.221-229.666c0.7-15.57-13.542-15.665-13.542-15.665H52.642c0,0-14.242,0.095-13.542,15.665L49.321,445.341z"/>
<g>
	<path style="fill:#FFD422;" d="M91.78,414.1c-11.649,0-12.255-14.066-12.255-14.066L70.623,200.01H52.642
		c0,0-14.242,0.095-13.542,15.665l10.221,229.666c0,0,0.605,14.066,12.255,14.066h105.76c11.649,0,12.255-14.066,12.255-14.066
		l1.39-31.241H91.78z"/>
	<circle style="fill:#FFD422;" cx="108.89" cy="264.022" r="6.285"/>
	<circle style="fill:#FFD422;" cx="91.396" cy="234.854" r="6.983"/>
	<circle style="fill:#FFD422;" cx="142.1" cy="228.16" r="6.285"/>
	<circle style="fill:#FFD422;" cx="160.962" cy="253.338" r="6.983"/>
</g>
<g>
	<circle style="fill:#FFA733;" cx="132.237" cy="407.953" r="29.264"/>
	<circle style="fill:#FFA733;" cx="101.396" cy="356.745" r="34.705"/>
</g>
<path style="fill:#FFE477;" d="M364.697,211.579c-1.699,0-3.425-0.357-5.07-1.109c-6.133-2.805-8.832-10.05-6.026-16.183
	l60.565-132.435c1.448-3.167,4.18-5.565,7.508-6.591L485.169,35.7c6.448-1.987,13.28,1.629,15.266,8.074
	c1.985,6.445-1.63,13.28-8.074,15.265l-58.263,17.95l-58.289,127.455C373.757,208.93,369.327,211.579,364.697,211.579z"/>
<path style="fill:#FFD422;" d="M391.839,110.673L353.6,194.286c-2.806,6.133-0.107,13.378,6.026,16.183
	c1.646,0.753,3.371,1.109,5.07,1.109c4.63,0,9.061-2.648,11.111-7.136l35.893-78.487
	C411.702,125.957,407.996,115.808,391.839,110.673z"/>
<path style="fill:#D1E7F8;" d="M472.836,207.428l1.354-30.11l0,0c1.028-22.864-17.684-23.11-17.684-23.11h-169
	c0,0-18.711,0.245-17.684,23.11l0,0l12.767,283.944c0.003,0.083,0.933,23.293,22.252,23.293h134.33
	c21.319,0,22.249-23.21,22.252-23.293l9.647-214.549"/>
<path style="fill:#B9D8F4;" d="M314.124,461.261l-12.767-283.943c-1.028-22.864,17.684-23.11,17.684-23.11h-31.534
	c0,0-18.711,0.245-17.684,23.11l12.767,283.944c0.003,0.083,0.933,23.293,22.252,23.293h31.534
	C315.056,484.554,314.127,461.344,314.124,461.261z"/>
<path style="fill:#A4E276;" d="M308.088,445.341c0,0,0.605,14.066,12.255,14.066h105.76c11.649,0,12.255-14.066,12.255-14.066
	l10.221-229.666c0.7-15.57-13.542-15.665-13.542-15.665H311.409c0,0-14.242,0.095-13.542,15.665L308.088,445.341z"/>
<g>
	<path style="fill:#7ED63E;" d="M350.548,414.1c-11.649,0-12.255-14.066-12.255-14.066l-8.902-200.024h-17.981
		c0,0-14.242,0.095-13.542,15.665l10.221,229.666c0,0,0.605,14.066,12.255,14.066h105.76c11.649,0,12.255-14.066,12.255-14.066
		l1.391-31.241H350.548z"/>
	<circle style="fill:#7ED63E;" cx="369.365" cy="246.338" r="6.285"/>
	<circle style="fill:#7ED63E;" cx="394.753" cy="269.169" r="6.983"/>
	<circle style="fill:#7ED63E;" cx="400.858" cy="228.16" r="6.285"/>
	<circle style="fill:#7ED63E;" cx="419.731" cy="253.338" r="6.983"/>
</g>
<g>
	<circle style="fill:#5EAC24;" cx="387.838" cy="407.953" r="29.264"/>
	<circle style="fill:#5EAC24;" cx="353.576" cy="368.849" r="34.705"/>
</g>
<path style="fill:#FFE477;" d="M246.14,202.695c-1.876,0-3.782-0.394-5.599-1.224c-6.772-3.097-9.752-11.096-6.653-17.869
	l66.874-146.23c1.599-3.498,4.616-6.145,8.291-7.278l70.11-21.599c7.12-2.194,14.663,1.799,16.855,8.915
	c2.191,7.117-1.8,14.663-8.915,16.854l-64.332,19.819L258.41,194.816C256.145,199.77,251.252,202.695,246.14,202.695z"/>
<path style="fill:#FFD422;" d="M276.109,91.277l-42.222,92.325c-3.098,6.772-0.118,14.772,6.653,17.869
	c1.817,0.832,3.723,1.224,5.599,1.224c5.112,0,10.005-2.924,12.269-7.879l39.633-86.662
	C298.042,108.154,293.95,96.947,276.109,91.277z"/>
<path style="fill:#D1E7F8;" d="M352.825,198.111l1.495-33.247l0,0c1.136-25.246-19.526-25.517-19.526-25.517H148.189
	c0,0-20.66,0.271-19.526,25.517l0,0l14.097,313.523c0.003,0.092,1.029,25.719,24.57,25.719h148.323
	c23.54,0,24.566-25.628,24.57-25.719l10.652-236.9"/>
<path style="fill:#B9D8F4;" d="M177.58,478.387l-14.097-313.523c-1.136-25.246,19.526-25.517,19.526-25.517H148.19
	c0,0-20.66,0.271-19.526,25.517l14.097,313.523c0.003,0.092,1.029,25.719,24.57,25.719h34.819
	C178.61,504.107,177.584,478.479,177.58,478.387z"/>
<path style="fill:#FF3F62;" d="M170.915,460.809c0,0,0.668,15.531,13.532,15.531h116.778c12.863,0,13.532-15.531,13.532-15.531
	l11.285-253.592c0.773-17.192-14.952-17.296-14.952-17.296H174.583c0,0-15.725,0.104-14.952,17.296L170.915,460.809z"/>
<g>
	<path style="fill:#FF0C38;" d="M217.798,426.314c-12.863,0-13.532-15.531-13.532-15.531l-9.829-220.861h-19.854
		c0,0-15.725,0.104-14.952,17.296l11.285,253.592c0,0,0.668,15.531,13.532,15.531h116.778c12.863,0,13.532-15.531,13.532-15.531
		l1.536-34.496L217.798,426.314L217.798,426.314z"/>
	<circle style="fill:#FF0C38;" cx="222.128" cy="229.518" r="6.94"/>
	<circle style="fill:#FF0C38;" cx="264.927" cy="230.118" r="7.711"/>
	<circle style="fill:#FF0C38;" cx="242.97" cy="258.548" r="6.94"/>
	<circle style="fill:#FF0C38;" cx="294.189" cy="248.801" r="7.711"/>
</g>
<g>
	<circle style="fill:#D80027;" cx="241.075" cy="396.269" r="49.051"/>
	<circle style="fill:#D80027;" cx="262.021" cy="325.262" r="38.321"/>
</g>
<path d="M507.978,41.45c-1.581-5.132-5.066-9.342-9.811-11.852c-4.746-2.511-10.188-3.025-15.322-1.442l-63.496,19.561
	c-5.476,1.687-9.982,5.642-12.403,10.939l-38.812,87.657h-9.509c-1.174-2.265-2.627-4.326-4.365-6.169
	c-7.836-8.304-18.204-8.677-19.464-8.692h-38.728l32.409-70.867l60.949-18.777c11.264-3.47,17.607-15.458,14.136-26.724
	C400.091,3.819,388.102-2.52,376.838,0.949l-11.089,3.417c-4.167,1.284-6.504,5.702-5.221,9.869c1.285,4.167,5.707,6.503,9.869,5.22
	l11.09-3.417c2.944-0.908,6.078,0.75,6.986,3.695c0.906,2.945-0.751,6.079-3.696,6.986l-64.332,19.82
	c-2.153,0.663-3.919,2.214-4.855,4.261l-36.885,80.652h-130.62c-0.965,0.013-8.348,0.293-15.319,5.209l-18.588-73.818
	c-1.466-5.539-5.239-10.199-10.351-12.789L44.553,20.041C39.76,17.614,34.31,17.2,29.207,18.872
	c-5.103,1.673-9.248,5.232-11.675,10.025c-2.426,4.79-2.84,10.24-1.167,15.343c1.673,5.104,5.232,9.25,10.023,11.675l51.107,25.877
	l15.066,64.522H28.635c-1.079,0.015-10.76,0.362-18.065,8.105c-5.35,5.669-7.84,13.493-7.401,23.253l12.766,283.94
	c0.471,10.666,7.376,30.837,30.138,30.837h91.949c4.376,10.2,13.564,19.552,29.307,19.552h148.323
	c15.758,0,24.95-9.369,29.319-19.552h94.199c21.274,0,29.68-18.476,30.138-30.833l9.647-214.549
	c0.197-4.356-3.177-8.045-7.531-8.242c-4.363-0.193-8.046,3.176-8.241,7.532l-9.647,214.551c-0.136,2.63-1.467,15.75-14.365,15.75
	h-90.968l0.421-9.358h77.479c14.095,0,19.768-12.93,20.141-21.61l10.221-229.663c0.396-8.795-2.9-14.199-5.735-17.185
	c-6.154-6.48-14.687-6.723-15.692-6.729H361l1.209-26.898c0.047-1.062,0.055-2.097,0.039-3.116h94.157
	c0.039,0,4.08,0.282,6.788,3.154c2.304,2.441,3.351,6.381,3.111,11.708l-1.354,30.11c-0.197,4.356,3.177,8.045,7.531,8.241
	c0.121,0.005,0.241,0.008,0.361,0.008c4.196,0,7.69-3.305,7.88-7.54l1.354-30.109c0.44-9.761-2.05-17.585-7.4-23.254
	c-7.305-7.743-16.986-8.091-18.169-8.106h-71.106l35.944-81.178c0.51-1.118,1.478-1.966,2.654-2.328l63.497-19.561
	c1.105-0.34,2.271-0.228,3.288,0.308c1.019,0.539,1.767,1.443,2.107,2.545c0.339,1.101,0.229,2.269-0.311,3.288
	c-0.539,1.02-1.442,1.767-2.544,2.107l-58.264,17.95c-2.164,0.666-3.937,2.229-4.869,4.291l-25.194,55.714
	c-1.796,3.972-0.032,8.649,3.941,10.446c3.97,1.795,8.649,0.032,10.446-3.941l23.727-52.47l54.86-16.901
	c5.132-1.581,9.342-5.066,11.852-9.813C509.048,52.023,509.56,46.582,507.978,41.45z M387.185,395.03
	c1.995-2.561,3.638-5.284,4.961-8.107c0.034,0.007,0.066,0.019,0.1,0.026c3.346,0.692,6.403,2.142,9.085,4.31
	c4.44,3.588,7.214,8.69,7.818,14.366c0.601,5.677-1.043,11.248-4.632,15.687c-3.588,4.439-8.69,7.216-14.366,7.817
	c-5.677,0.604-11.246-1.043-15.686-4.631c-4.016-3.245-6.72-7.829-7.611-12.908c-0.132-0.745-0.368-1.444-0.683-2.093
	C374.346,406.959,381.753,402.003,387.185,395.03z M374.73,385.327c-5.478,7.028-14.131,10.812-22.882,10.268l2.408-53.553
	c5.71,0.133,11.21,2.081,15.8,5.657C381.718,356.785,383.815,373.664,374.73,385.327z M130.689,385.654l1.978,43.991
	c-11.853-0.386-21.382-10.124-21.382-22.069C111.285,396.304,119.772,386.993,130.689,385.654z M92.031,74.616
	c-0.531-2.273-2.04-4.194-4.122-5.247L33.518,41.828c-1.029-0.521-1.793-1.41-2.151-2.505c-0.359-1.096-0.271-2.266,0.251-3.294
	c0.521-1.029,1.412-1.795,2.506-2.154c1.096-0.358,2.265-0.268,3.296,0.252l59.274,30.014c1.097,0.556,1.907,1.556,2.197,2.65
	l20.023,79.523h-10.141L92.031,74.616z M31.709,460.906L18.942,176.963c-0.579-12.883,6.704-14.692,9.948-14.861h91.849
	c-0.016,1.019-0.008,2.054,0.039,3.116l1.209,26.898H52.59c-0.953,0.006-9.486,0.249-15.64,6.73
	c-2.835,2.984-6.13,8.388-5.731,17.243l7.219,137.688c0.22,4.214,3.706,7.482,7.875,7.481c0.14,0,0.28-0.003,0.42-0.011
	c4.355-0.228,7.699-3.943,7.47-8.297l-7.216-137.629c-0.115-2.57,0.343-4.438,1.362-5.549c1.461-1.594,4.092-1.84,4.437-1.865
	h69.912l5.203,115.723c-16.382-12.551-39.979-11.648-55.342,3.053c-1.202,1.149-2.345,2.378-3.399,3.652
	c-2.779,3.36-2.306,8.337,1.054,11.114c3.359,2.779,8.335,2.307,11.115-1.053c0.663-0.802,1.384-1.578,2.145-2.304
	c10.68-10.222,27.686-9.847,37.907,0.835c7.144,7.465,9.361,18.13,5.786,27.833c-0.429,1.166-0.558,2.367-0.439,3.525
	c-9.344,1.665-17.509,6.762-23.145,13.942c-7.867,0.461-15.496-2.537-20.942-8.226c-4.48-4.681-7.111-10.818-7.411-17.279
	c-0.202-4.356-3.912-7.75-8.252-7.52c-4.356,0.202-7.722,3.897-7.521,8.251c0.477,10.272,4.66,20.025,11.775,27.463
	c6.748,7.05,15.604,11.485,25.101,12.757c-0.544,2.551-0.836,5.196-0.836,7.907c0,20.891,16.993,37.887,37.883,37.893l0.272,6.043
	H61.576c-3.729,0-4.29-5.36-4.368-6.543l-2.162-59.623c-0.158-4.358-3.868-7.774-8.175-7.603c-4.358,0.158-7.762,3.818-7.604,8.175
	l2.167,59.761c0.374,8.69,6.047,21.621,20.142,21.621h72.785l0.421,9.358H46.074C33.173,476.659,31.845,463.534,31.709,460.906z
	 M329.526,488.1c-2.886,5.535-7.294,8.112-13.873,8.112H167.33c-6.579,0-10.987-2.578-13.873-8.112
	c-2.521-4.836-2.807-10.006-2.81-10.067L136.549,164.51c-0.272-6.035,0.925-10.548,3.555-13.417c3.126-3.408,7.71-3.815,8.243-3.85
	h186.278c0.478,0.031,5.106,0.418,8.253,3.851c2.63,2.869,3.827,7.383,3.556,13.417l-14.099,313.533
	C332.334,478.094,332.047,483.264,329.526,488.1z M434.986,207.905c0.025,0,2.771,0.207,4.296,1.814
	c1.054,1.109,1.528,2.994,1.412,5.606l-10.219,229.607c-0.067,1.099-0.599,6.582-4.37,6.582h-76.77l1.805-40.136
	c0.069,0.004,0.138,0.004,0.207,0.007c-0.192,0.942-0.221,1.934-0.044,2.939c1.554,8.835,6.253,16.81,13.236,22.454
	c6.677,5.397,14.824,8.266,23.289,8.266c1.323,0,2.654-0.07,3.987-0.212c9.87-1.046,18.742-5.873,24.981-13.593
	c6.24-7.719,9.101-17.406,8.053-27.276c-1.046-9.87-5.873-18.742-13.592-24.981c-4.424-3.577-9.664-6.099-15.186-7.343
	c0.872-13.605-4.77-27.401-16.312-36.393c-7.21-5.617-15.831-8.701-24.795-8.973l5.323-118.365h74.698V207.905z"/>
<path d="M311.09,182.026H174.53c-1.017,0.006-10.118,0.265-16.679,7.174c-3.02,3.18-6.53,8.948-6.104,18.43l7.97,152.031
	c0.227,4.355,3.944,7.69,8.297,7.47c4.355-0.228,7.699-3.943,7.47-8.297l-7.967-151.972c-0.138-3.07,0.443-5.333,1.727-6.729
	c1.856-2.017,5.105-2.294,5.471-2.319h136.322c0.032,0,3.402,0.223,5.335,2.259c1.323,1.393,1.923,3.678,1.783,6.792
	l-11.284,253.541c-0.08,1.342-0.73,8.039-5.647,8.039H184.446c-4.871,0-5.555-6.576-5.645-8.002l-2.387-65.848
	c-0.154-4.26-3.657-7.609-7.884-7.609c-0.097,0-0.195,0.001-0.291,0.005c-4.358,0.158-7.762,3.818-7.604,8.175l2.391,65.983
	c0.4,9.28,6.433,23.085,21.419,23.085h116.778c14.986,0,21.02-13.806,21.418-23.074l11.286-253.589
	c0.423-9.423-3.087-15.191-6.107-18.371C321.26,182.292,312.159,182.033,311.09,182.026z"/>
<path d="M339.651,28.562c0.769,0,1.554-0.114,2.327-0.352l7.346-2.263c4.166-1.283,6.504-5.702,5.221-9.868
	c-1.284-4.166-5.703-6.504-9.869-5.22l-7.346,2.263c-4.166,1.283-6.504,5.702-5.221,9.868
	C333.155,26.382,336.278,28.562,339.651,28.562z"/>
<path d="M260.903,124.528c1.064,0.486,2.18,0.717,3.278,0.717c2.995,0,5.858-1.713,7.184-4.614l36.578-79.98
	c0.661-1.447,1.913-2.545,3.435-3.015l8.455-2.605c4.167-1.284,6.504-5.702,5.221-9.869c-1.284-4.166-5.704-6.502-9.869-5.22
	l-8.455,2.605c-5.823,1.794-10.614,6-13.145,11.539l-36.577,79.978C255.193,118.03,256.937,122.714,260.903,124.528z"/>
<path d="M184.124,396.273c0,31.4,25.545,56.945,56.945,56.945s56.946-25.545,56.946-56.945c0-12.121-3.818-23.359-10.299-32.603
	c12.666-8.485,20.516-22.837,20.516-38.411c0-25.483-20.732-46.215-46.215-46.215c-1.8,0-3.616,0.105-5.398,0.313
	c-4.33,0.504-7.433,4.423-6.929,8.753c0.504,4.331,4.427,7.431,8.754,6.929c1.178-0.137,2.38-0.206,3.572-0.206
	c16.776,0,30.426,13.649,30.426,30.426c0,11.139-6.103,21.322-15.739,26.642c-9.764-7.858-22.156-12.574-35.636-12.574
	c-1.979,0-3.935,0.102-5.862,0.301c-2.36-4.398-3.617-9.334-3.617-14.369c0-7.352,2.656-14.449,7.48-19.982
	c2.865-3.286,2.523-8.273-0.763-11.139c-3.287-2.866-8.274-2.524-11.139,0.763c-7.331,8.409-11.368,19.19-11.368,30.357
	c0,6.318,1.301,12.543,3.778,18.292C198.805,352.05,184.124,372.475,184.124,396.273z M241.07,355.116
	c22.695,0,41.157,18.462,41.157,41.156c0,22.694-18.462,41.156-41.157,41.156c-22.694,0-41.156-18.462-41.156-41.156
	C199.913,373.579,218.376,355.116,241.07,355.116z"/>
</svg>